<?xml version="1.0" encoding="iso-8859-1"?>
<!-- Generator: Adobe Illustrator 19.0.0, SVG Export Plug-In . SVG Version: 6.00 Build 0)  -->
<svg version="1.1" id="Capa_1" xmlns="http://www.w3.org/2000/svg" xmlns:xlink="http://www.w3.org/1999/xlink" x="0px" y="0px"
	 viewBox="0 0 512 512" style="enable-background:new 0 0 512 512;" xml:space="preserve">
<g>
	<g>
		<g>
			<path d="M152.735,149.062c3.76,3.826,8.9,5.981,14.264,5.981h65c11.046,0,20-8.954,20-20s-8.954-20-20-20h-56.614l-15.428-15.697
				l14.856-15.303h137.49c9.214,0,17.235-6.294,19.426-15.244c1.617-6.605,3.647-12.957,6.584-20.596
				c1.941-5.047,6.805-8.161,12.78-8.16h62.37c5.656,0.014,10.524,3.053,12.705,7.931c5.37,12.012,11.78,30.609,11.828,50.988
				c0.049,20.529-6.356,39.55-11.738,51.893c-2.171,4.977-7.079,8.188-12.514,8.188c-0.011,0-0.022,0-0.033,0l-63.17-0.148
				c-5.657-0.013-10.719-3.432-12.896-8.71c-2.339-5.669-4.366-12.145-6.197-19.796c-2.571-10.742-13.365-17.369-24.106-14.795
				c-10.742,2.571-17.366,13.364-14.795,24.106c2.323,9.701,4.978,18.121,8.121,25.738c8.362,20.273,27.902,33.407,49.78,33.458
				l63.171,0.148c0.043,0,0.085,0,0.128,0c21.35,0,40.645-12.629,49.179-32.201c6.911-15.851,15.136-40.512,15.072-67.974
				c-0.064-27.391-8.361-51.671-15.31-67.216c-8.561-19.15-27.845-31.557-49.176-31.607h-62.37c-0.046,0-0.09,0-0.135,0
				c-22.5,0-42.128,13.258-50.028,33.807c-1.051,2.735-2.336,6.178-3.677,10.193H166.356c-5.407,0-10.584,2.189-14.35,6.068
				L117.65,85.501c-7.567,7.795-7.529,20.203,0.085,27.951L152.735,149.062z"/>
			<path d="M458.935,335.599l-68.201-25.36l-119.926-90.994c-10.37-7.868-23.25-12.201-36.267-12.201H93.999
				c-18.633,0-35.886,8.431-47.335,23.13c-0.991,1.272-1.824,2.659-2.482,4.131l-31.642,70.817C4.219,323.748,0,343.535,0,363.934
				v48.022c0,33.084,26.916,60,60,60h18.44c8.256,23.278,30.487,40,56.56,40c26.073,0,48.303-16.722,56.56-40h50.44
				c11.046,0,20-8.954,20-20s-8.954-20-20-20h-50.44c-8.256-23.278-30.487-40-56.56-40c-26.073,0-48.303,16.722-56.56,40H60
				c-11.028,0-20-8.972-20-20v-48.022c0-4.369,0.275-8.697,0.808-12.978h341.689c0.85,0,1.682-0.07,2.504-0.173l60.026,22.32
				c0.032,0.012,0.063,0.023,0.095,0.035c16.027,5.867,27.08,21.73,26.876,38.577c-0.001,0.08-0.001,0.161-0.001,0.241v20h-43.44
				c-8.256-23.278-30.487-40-56.56-40c-33.084,0-60,26.916-60,60s26.916,60,60,60c26.073,0,48.303-16.722,56.56-40h63.44
				c11.045,0,20-8.954,20-20v-39.888C512.35,378.095,491.043,347.383,458.935,335.599z M134.999,431.955c11.028,0,20,8.972,20,20
				s-8.972,20-20,20c-11.028,0-20-8.972-20-20S123.971,431.955,134.999,431.955z M137.999,310.956H53.746l25.797-57.736
				c3.759-3.949,8.926-6.178,14.457-6.178h44V310.956z M177.999,310.956v-63.913h56.542c4.339,0,8.633,1.445,12.09,4.068
				l78.874,59.846H177.999z M371.997,471.955c-11.028,0-20-8.972-20-20s8.972-20,20-20s20,8.972,20,20
				S383.025,471.955,371.997,471.955z"/>
			<circle cx="396.997" cy="99.044" r="20"/>
		</g>
	</g>
</g>
<g>
</g>
<g>
</g>
<g>
</g>
<g>
</g>
<g>
</g>
<g>
</g>
<g>
</g>
<g>
</g>
<g>
</g>
<g>
</g>
<g>
</g>
<g>
</g>
<g>
</g>
<g>
</g>
<g>
</g>
</svg>
